# xmcd
#
# Track frame offsets:
#	150
#	21470
#	33707
#	46312
#	60758
#	73615
#	97789
#	113811
#	132035
#	147557
#	160990
#
# Disc length: 2428 seconds
#
# Revision: 1
# Processed by: cddbd v1.5.1PL0 Copyright (c) Steve Scherf et al.
# Submitted via: audiograbber 1.83.01
#
DISCID=93097a0b
DTITLE=CBO - Covered
DYEAR=2004
DGENRE=Retro
TTITLE0=Good Times
TTITLE1=These Boots Are Made For Walkin'
TTITLE2=More Today Than Yesterday
TTITLE3=Spooky
TTITLE4=I Get A Kick Outta You
TTITLE5=The Chicken
TTITLE6=Johnny B. Goode
TTITLE7=Boogie Oogie Oogie
TTITLE8=Shotgun
TTITLE9=Mack The Knife
TTITLE10=Love The One You're With
EXTD=
EXTT0=
EXTT1=
EXTT2=
EXTT3=
EXTT4=
EXTT5=
EXTT6=
EXTT7=
EXTT8=
EXTT9=
EXTT10=
PLAYORDER=
